<?xml version="1.0" encoding="utf-8"?>
<!-- Generator: Adobe Illustrator 19.2.0, SVG Export Plug-In . SVG Version: 6.00 Build 0)  -->
<!DOCTYPE svg PUBLIC "-//W3C//DTD SVG 1.1//EN" "http://www.w3.org/Graphics/SVG/1.1/DTD/svg11.dtd">
<svg version="1.1" id="Ebene_1" xmlns="http://www.w3.org/2000/svg" xmlns:xlink="http://www.w3.org/1999/xlink" x="0px" y="0px"
	 viewBox="0 0 102.7 24.3" style="enable-background:new 0 0 102.7 24.3;" xml:space="preserve">
<style type="text/css">
	.st0{fill:#FFFFFF;}
</style>
<g>
	<path class="st0" d="M62.3,4.8L63,6c-1.2,0.6-2.1,1.8-2.1,3.2h4h4c0-1.4-0.8-2.6-2.1-3.2l0.7-1.2c0,0,0-0.1,0-0.1
		c-0.1,0-0.1,0-0.1,0l-0.7,1.2c-0.5-0.2-1.1-0.4-1.7-0.4c-0.6,0-1.2,0.1-1.7,0.4l-0.7-1.2C62.4,4.7,62.4,4.6,62.3,4.8
		C62.3,4.7,62.3,4.8,62.3,4.8L62.3,4.8z M63,7.1c0.2,0,0.4,0.2,0.4,0.4c0,0.2-0.2,0.4-0.4,0.4c-0.2,0-0.4-0.2-0.4-0.4
		C62.6,7.2,62.8,7.1,63,7.1 M66.7,7.1c0.2,0,0.4,0.2,0.4,0.4c0,0.2-0.2,0.4-0.4,0.4c-0.2,0-0.4-0.2-0.4-0.4
		C66.4,7.2,66.5,7.1,66.7,7.1"/>
	<path class="st0" d="M60.9,9.6v6c0,0.3,0.4,0.7,0.7,0.7h0.9v2.1c0,0.5,0.4,0.9,0.9,0.9c0.5,0,0.9-0.4,0.9-0.9v-2.1h1.4v2.1
		c0,0.5,0.4,0.9,0.9,0.9c0.5,0,0.9-0.4,0.9-0.9v-2.1h0.9c0.3,0,0.7-0.4,0.7-0.7v-6H60.9z"/>
	<path class="st0" d="M59.6,9.5L59.6,9.5c0.5,0,0.9,0.4,0.9,0.9V14c0,0.5-0.4,0.9-0.9,0.9c-0.5,0-0.9-0.4-0.9-0.9v-3.6
		C58.7,9.9,59.1,9.5,59.6,9.5"/>
	<path class="st0" d="M70.2,9.5L70.2,9.5c0.5,0,0.9,0.4,0.9,0.9V14c0,0.5-0.4,0.9-0.9,0.9c-0.5,0-0.9-0.4-0.9-0.9v-3.6
		C69.3,9.9,69.7,9.5,70.2,9.5"/>
	<path class="st0" d="M64.5,24.1c-6.6,0-12-5.4-12-12c0-6.6,5.4-12,12-12c6.6,0,12,5.4,12,12C76.5,18.7,71.1,24.1,64.5,24.1z
		 M64.5,0.8c-6.2,0-11.2,5-11.2,11.2s5,11.2,11.2,11.2c6.2,0,11.2-5,11.2-11.2S70.7,0.8,64.5,0.8z M38.3,24.1c-6.6,0-12-5.4-12-12
		c0-6.6,5.4-12,12-12c6.6,0,12,5.4,12,12C50.3,18.7,44.9,24.1,38.3,24.1z M38.3,0.8c-6.2,0-11.2,5-11.2,11.2s5,11.2,11.2,11.2
		c6.2,0,11.2-5,11.2-11.2S44.4,0.8,38.3,0.8z"/>
	<path class="st0" d="M33.3,11.7c0,2.7,1.6,4.2,3.6,4.2c2,0,3.6-1.8,3.6-4.2c0-2.6-1.6-4.2-3.6-4.2C34.9,7.5,33.3,9,33.3,11.7
		 M34.7,11.7c0-1.9,1-3,2.2-3c1.2,0,2.1,1.6,2.1,3.2c0,1.6-1,2.8-2.1,2.8C35.8,14.7,34.7,13.6,34.7,11.7"/>
	<path class="st0" d="M30.6,8.3c0,0.4,0.4,0.8,0.9,0.8c0.5,0,0.9-0.4,0.9-0.8c0-0.4-0.4-0.8-0.9-0.8C31,7.5,30.6,7.9,30.6,8.3"/>
	<path class="st0" d="M41.3,9.3c-0.2,1,0.4,2.3,1.6,2.7c1,0.3,1.8,0.8,1.8,1.3c0,0.6-0.2,1.2-1.3,1.2c-1.1,0-1.9-0.5-1.9-0.5
		L41,15.3c0,0,0.5,0.2,1,0.3c0.5,0.1,1.5,0.3,2.2,0.1c0.6-0.2,1.9-0.6,2-2.2c0.1-1.6-1.8-2.3-2.4-2.6c-0.6-0.3-1.1-0.8-1.1-1.3
		c0.1-0.5,0.9-0.8,1.5-0.8c0.6,0,1.3,0.5,1.3,0.5L45.8,8c0,0-0.3-0.4-1.7-0.4c0,0-0.1,0-0.1,0C42.6,7.6,41.4,8.4,41.3,9.3"/>
	<path class="st0" d="M12,24.1c-6.6,0-12-5.4-12-12C0,5.4,5.4,0,12,0c6.6,0,12,5.4,12,12C24.1,18.7,18.7,24.1,12,24.1z M12,0.8
		C5.9,0.8,0.8,5.9,0.8,12s5,11.2,11.2,11.2c6.2,0,11.2-5,11.2-11.2S18.2,0.8,12,0.8z"/>
	<path class="st0" d="M9.7,8.3c0-0.5-0.3-1.1-1.6-1.1h-2L5.5,9.8h2.1C9.2,9.8,9.7,9,9.7,8.3"/>
	<path class="st0" d="M15,8.3c0-0.5-0.3-1.1-1.6-1.1h-2l-0.6,2.6h2.1C14.6,9.8,15,9,15,8.3"/>
	<path class="st0" d="M8.9,12.3c0-0.5-0.3-1.1-1.6-1.1h-2l-0.6,2.6h2.1C8.5,13.7,8.9,13,8.9,12.3"/>
	<path class="st0" d="M14.3,12.3c0-0.5-0.3-1.1-1.6-1.1h-2l-0.6,2.6h2.1C13.8,13.7,14.3,13,14.3,12.3"/>
	<path class="st0" d="M19.9,10.7c0-0.5-0.3-1.1-1.6-1.1h-2l-0.6,2.6h2.1C19.4,12.1,19.9,11.4,19.9,10.7"/>
	<path class="st0" d="M19.1,14.8c0-0.5-0.3-1.1-1.6-1.1h-2L15,16.2H17C18.7,16.2,19.1,15.5,19.1,14.8"/>
	<path class="st0" d="M13.5,16.4c0-0.5-0.3-1.1-1.6-1.1h-2l-0.6,2.6h2.1C13.1,17.8,13.5,17.1,13.5,16.4"/>
	<path class="st0" d="M90.7,24.3c-6.6,0-12-5.4-12-12c0-6.6,5.4-12,12-12c6.6,0,12,5.4,12,12C102.7,18.9,97.4,24.3,90.7,24.3z
		 M90.7,1c-6.2,0-11.2,5-11.2,11.2s5,11.2,11.2,11.2c6.2,0,11.2-5,11.2-11.2S96.9,1,90.7,1z"/>
	<polygon class="st0" points="84.6,12.5 84.6,16.7 89.6,17.4 89.6,12.5 	"/>
	<polygon class="st0" points="89.6,7.2 84.6,7.9 84.6,12 89.6,12 	"/>
	<polygon class="st0" points="96.8,11.9 96.8,6.1 90.2,7.1 90.2,12 	"/>
	<polygon class="st0" points="90.2,17.4 96.8,18.4 96.8,12.6 90.2,12.5 	"/>
</g>
<rect x="30.8" y="9.8" class="st0" width="1.3" height="5.8"/>
</svg>
