<?xml version="1.0" encoding="utf-8"?>
<!-- Generator: Adobe Illustrator 18.1.1, SVG Export Plug-In . SVG Version: 6.00 Build 0)  -->
<!DOCTYPE svg PUBLIC "-//W3C//DTD SVG 1.1//EN" "http://www.w3.org/Graphics/SVG/1.1/DTD/svg11.dtd">
<svg version="1.1" id="Layer_1" xmlns="http://www.w3.org/2000/svg" xmlns:xlink="http://www.w3.org/1999/xlink" x="0px" y="0px"
	 width="28.7px" height="20px" viewBox="-675.2 1156.2 28.7 20" enable-background="new -675.2 1156.2 28.7 20"
	 xml:space="preserve">
<g>
	<path fill="#FFFFFF" d="M-665.9,1158.4c0-0.9-0.7-2.2-3-2.2c-0.9,0-3.8,0-3.8,0l-1.2,5c0,0,2,0,3.9,0
		C-666.8,1161.1-665.9,1159.6-665.9,1158.4z"/>
	<path fill="#FFFFFF" d="M-655.8,1158.4c0-0.9-0.7-2.2-3-2.2c-0.9,0-3.8,0-3.8,0l-1,5c0,0,2,0,3.9,0
		C-656.7,1161.1-655.8,1159.6-655.8,1158.4z"/>
	<path fill="#FFFFFF" d="M-667.2,1165.6c0-0.9-0.7-2.2-3-2.2c-0.9,0-3.8,0-3.8,0l-1.2,5c0,0,2,0,3.9,0
		C-668.1,1168.4-667.2,1167.1-667.2,1165.6z"/>
	<path fill="#FFFFFF" d="M-657.1,1165.6c0-0.9-0.7-2.2-3-2.2c-0.9,0-3.8,0-3.8,0l-1,5c0,0,2,0,3.9,0
		C-658,1168.4-657.1,1167.1-657.1,1165.6z"/>
	<path fill="#FFFFFF" d="M-646.6,1162.6c0-0.9-0.7-2.2-3-2.2c-0.9,0-3.8,0-3.8,0l-1,5c0,0,2,0,3.9,0
		C-647.5,1165.4-646.6,1164.1-646.6,1162.6z"/>
	<path fill="#FFFFFF" d="M-648.1,1170.4c0-0.9-0.7-2.2-3-2.2c-0.9,0-3.8,0-3.8,0l-1,5c0,0,2,0,3.9,0
		C-648.9,1173.1-648.1,1171.9-648.1,1170.4z"/>
	<path fill="#FFFFFF" d="M-658.7,1173.4c0-0.9-0.7-2.2-3-2.2c-0.9,0-3.8,0-3.8,0l-1,5c0,0,2,0,3.9,0
		C-659.5,1176.2-658.7,1174.8-658.7,1173.4z"/>
</g>
</svg>
